<svg xmlns="http://www.w3.org/2000/svg" xmlns:xlink="http://www.w3.org/1999/xlink" version="1.1" id="Layer_1" x="0px" y="0px" viewBox="0 0 300 88.5" style="enable-background:new 0 0 300 88.5;" xml:space="preserve">
<style type="text/css">
	.st0{fill:#0069B4;}
	.st1{fill:#F39200;}
</style>
<g>
	<path class="st0" d="M23.4,65.4c0.5,0.9,1.1,1.7,1.8,2.5c1.9,1.8,4.4,2.7,7.7,2.8c3.2,0,5.7-0.9,7.6-2.7c1.8-1.7,2.8-4.1,2.8-7.1   v-0.9c-3.1,1-6.5,1.5-10.5,1.6c-7.9-0.1-14.1-2.2-18.5-6.2c-4.4-4-6.6-9.2-6.7-15.7v-2.8H2.4l12.5-12.5l12.5,12.5h-5.1v0.8   c0,3.1,1,5.5,2.9,7.3c1.9,1.8,4.4,2.7,7.7,2.8c3.2,0,5.7-0.9,7.6-2.7c1.6-1.5,2.5-3.5,2.7-6l7.5,7.5l7.3-7.3v0.6c0,0.4,0,0.9,0,1.3   l0,21.6c-0.1,6.4-2.3,11.6-6.8,15.5c-4.4,4-10.6,6-18.4,6.1c-7.9-0.1-14.1-2.2-18.5-6.2c-3.7-3.4-5.9-7.6-6.5-12.8H23.4z"/>
	<path class="st1" d="M58,26v2.8h5.2L50.6,41.3L38.1,28.8h5.1v-0.8c0-3.1-1-5.5-2.9-7.3c-1.9-1.8-4.4-2.7-7.7-2.8   c-3.2,0-5.7,0.9-7.6,2.7c-1.6,1.5-2.5,3.5-2.7,6L14.9,19l-7.3,7.3v-0.6c0.1-6.4,2.3-11.6,6.8-15.6c4.4-4,10.6-6,18.5-6.1   c7.9,0.1,14.1,2.2,18.5,6.2C55.7,14.3,57.9,19.5,58,26"/>
	<path class="st0" d="M124.4,21.1c0-2.4,1.9-4.3,4.3-4.3c2.4,0,4.3,1.9,4.3,4.3s-1.9,4.3-4.3,4.3C126.4,25.4,124.4,23.5,124.4,21.1    M108.5,46.1V27.9h8.6V45c0,1.8,0.6,3.2,1.7,4.3c1.1,1,2.6,1.6,4.5,1.6c1.9,0,3.3-0.5,4.4-1.5c1.1-1,1.6-2.4,1.6-4.2V27.9h8.6v18.4   c0,3.7-1.4,6.7-3.9,9c-2.6,2.3-6.2,3.5-10.7,3.6c-4.6-0.1-8.2-1.3-10.8-3.6C109.8,53,108.5,49.9,108.5,46.1 M113.2,21.1   c0-2.4,1.9-4.3,4.3-4.3c2.4,0,4.3,1.9,4.3,4.3s-1.9,4.3-4.3,4.3C115.1,25.4,113.2,23.5,113.2,21.1"/>
	<polygon class="st0" points="150.8,46.2 154.6,46.2 163.5,57.9 173.7,57.9 161.6,42.2 173.2,28.3 163.1,28.3 154.6,38.5    150.8,38.5 150.8,16.8 142.2,16.8 142.2,57.9 150.8,57.9  "/>
	<path class="st1" d="M225.7,34.2c1.8,0,3.3,0.5,4.6,1.5c1.3,1,2.1,2.2,2.5,3.8h-14.5c0.5-1.6,1.4-2.8,2.7-3.8   C222.3,34.7,223.9,34.2,225.7,34.2 M233.9,47c-0.8,1.2-1.9,2.2-3.2,2.9c-1.3,0.7-2.8,1.1-4.5,1.1c-1.8,0-3.4-0.5-4.9-1.4   c-1.4-0.9-2.4-2.2-2.9-3.9h22.8v-2.5c-0.1-5.1-1.5-9.1-4.4-11.9c-2.9-2.8-6.6-4.3-11.3-4.3c-3.1,0-5.9,0.7-8.3,2.1   c-2.4,1.4-4.4,3.2-5.8,5.6c-1.4,2.4-2.1,5.1-2.2,8.1c0,3.4,0.8,6.3,2.3,8.6c1.5,2.3,3.5,4.1,6,5.4c2.5,1.2,5.3,1.8,8.3,1.8   c3.4-0.1,6.3-0.7,8.8-2.1c2.5-1.4,4.4-3,5.7-5.1L233.9,47z"/>
	<path class="st1" d="M246.4,35.4v10.9c0,2.1,0.5,3.8,1.4,5.2c0.9,1.4,1.9,2.6,3.2,3.5c1.3,0.9,2.5,1.7,3.8,2.3l2.6,1.4l4-7.1   l-2.3-1.3c-1.3-0.7-2.3-1.5-3-2.4c-0.7-0.9-1-2-1-3.5v-9.1h5.3v-7.5H255V16.8l-8.6,4.8v6.3h-2.8v7.5H246.4z"/>
	<rect x="265.7" y="27.9" class="st1" width="8.6" height="30"/>
	<path class="st1" d="M287.2,44.1c0.1-2.9,0.8-5.1,2.3-6.6c1.5-1.5,3.3-2.5,5.4-2.9l2.7-0.5l-1.6-7.2l-2.4,0.4   c-1.3,0.2-2.6,0.7-3.9,1.5c-1.3,0.8-2.3,1.8-3,3.2v-4h-8v30h8.6V44.1z"/>
	<path class="st0" d="M74.7,46.1V27.9h8.6V45c0,1.8,0.6,3.2,1.7,4.3c1.1,1.1,2.6,1.6,4.5,1.6c1.9,0,3.3-0.5,4.4-1.5   c1.1-1,1.6-2.4,1.6-4.2V27.9h8.6v18.4c0,0.3,0,0.7,0,1l0,11.8c0,3.7-1.4,6.8-3.9,9.1c-2.6,2.3-6.2,3.5-10.7,3.5   c-4.6-0.1-8.2-1.3-10.8-3.6c-2.2-2-3.4-4.4-3.8-7.4h9.1c0.3,0.5,0.6,1,1.1,1.4c1.1,1.1,2.6,1.6,4.5,1.6c1.9,0,3.3-0.5,4.4-1.5   c1.1-1,1.6-2.4,1.6-4.2v0c-1.8,0.6-3.8,0.9-6.1,0.9c-4.6-0.1-8.2-1.3-10.8-3.6C76.1,53,74.8,49.9,74.7,46.1"/>
	<path class="st1" d="M175.5,46.1v-1.4V43v-2.5c0-3.7,1.4-6.8,3.9-9c2.6-2.3,6.2-3.5,10.7-3.6c4.6,0.1,8.2,1.3,10.8,3.6   c2.6,2.3,3.9,5.4,3.9,9.1V43v1.8v1.5c0,0.3,0,0.7,0,1l0,11.8c0,3.7-1.4,6.8-3.9,9.1c-2.6,2.3-6.2,3.5-10.7,3.5   c-4.6-0.1-8.2-1.3-10.8-3.6c-2.2-2-3.4-4.4-3.8-7.4h9.1c0.3,0.5,0.6,1,1.1,1.4c1.1,1.1,2.6,1.6,4.5,1.6c1.9,0,3.3-0.5,4.4-1.5   c1.1-1,1.6-2.4,1.6-4.2v0c-1.8,0.6-3.8,0.9-6.1,0.9c-4.6-0.1-8.2-1.3-10.8-3.6C176.9,53,175.6,49.9,175.5,46.1 M184.1,43v1.8   c0,2,0.6,3.4,1.7,4.5c1.1,1,2.6,1.6,4.5,1.6c1.9,0,3.3-0.5,4.4-1.5c1.1-1,1.6-2.4,1.6-4.2v-0.4V43v-1.3c0-1.8-0.6-3.2-1.7-4.3   c-1.1-1.1-2.6-1.6-4.5-1.6c-1.9,0-3.3,0.5-4.4,1.5c-1.1,1-1.6,2.4-1.6,4.2V43z"/>
	<path class="st1" d="M265.6,21.1c0-2.4,1.9-4.3,4.3-4.3c2.4,0,4.3,1.9,4.3,4.3s-1.9,4.3-4.3,4.3C267.6,25.4,265.6,23.5,265.6,21.1"/>
</g>
</svg>